<?xml version="1.0" encoding="UTF-8" standalone="no"?>
<!DOCTYPE svg PUBLIC "-//W3C//DTD SVG 1.1//EN" "http://www.w3.org/Graphics/SVG/1.1/DTD/svg11.dtd">
<svg width="100%" height="100%" viewBox="0 0 2009 2051" version="1.1" xmlns="http://www.w3.org/2000/svg" xmlns:xlink="http://www.w3.org/1999/xlink" xml:space="preserve" xmlns:serif="http://www.serif.com/" style="fill-rule:evenodd;clip-rule:evenodd;stroke-linejoin:round;stroke-miterlimit:2;">
    <g transform="matrix(1,0,0,1,-199.489,-527.615)">
        <g transform="matrix(1,0,0,1,-17.8462,47.59)">
            <path d="M1568.43,2245.04L658.589,2245.04C415.054,2245.04 217.335,2047.32 217.335,1803.79L217.335,921.278C217.335,677.744 415.054,480.025 658.589,480.025L1784.8,480.025C2028.34,480.025 2226.05,677.744 2226.05,921.278L2226.05,1803.79C2226.05,2025.01 2062.9,2208.43 1850.46,2240.18C1717.48,2412.63 1891.55,2530.25 1891.55,2530.25C1591.88,2517.03 1563.18,2337.31 1568.43,2245.04Z" style="fill:white;"/>
        </g>
    </g>
</svg>
